<svg width="32" height="33" viewBox="0 0 32 33" fill="none" xmlns="http://www.w3.org/2000/svg">
<path d="M16 10.4582C12.4532 10.4582 9.59065 13.3207 9.59065 16.8675C9.59065 20.4144 12.4532 23.2769 16 23.2769C19.5469 23.2769 22.4094 20.4144 22.4094 16.8675C22.4094 13.3207 19.5469 10.4582 16 10.4582ZM16 21.0332C13.7063 21.0332 11.8344 19.1613 11.8344 16.8675C11.8344 14.5738 13.7063 12.7019 16 12.7019C18.2938 12.7019 20.1657 14.5738 20.1657 16.8675C20.1657 19.1613 18.2938 21.0332 16 21.0332ZM22.6719 8.70191C21.8438 8.70191 21.175 9.37066 21.175 10.1988C21.175 11.0269 21.8438 11.6957 22.6719 11.6957C23.5 11.6957 24.1688 11.03 24.1688 10.1988C24.169 10.0021 24.1305 9.80738 24.0553 9.62566C23.9802 9.44394 23.8699 9.27883 23.7309 9.13978C23.5919 9.00073 23.4267 8.89048 23.245 8.81535C23.0633 8.74021 22.8685 8.70166 22.6719 8.70191ZM28.4938 16.8675C28.4938 15.1425 28.5094 13.4332 28.4125 11.7113C28.3157 9.71128 27.8594 7.93628 26.3969 6.47378C24.9313 5.00816 23.1594 4.55503 21.1594 4.45816C19.4344 4.36128 17.725 4.37691 16.0031 4.37691C14.2781 4.37691 12.5688 4.36128 10.8469 4.45816C8.8469 4.55503 7.0719 5.01128 5.6094 6.47378C4.14378 7.93941 3.69065 9.71128 3.59378 11.7113C3.4969 13.4363 3.51253 15.1457 3.51253 16.8675C3.51253 18.5894 3.4969 20.3019 3.59378 22.0238C3.69065 24.0238 4.1469 25.7988 5.6094 27.2613C7.07503 28.7269 8.8469 29.18 10.8469 29.2769C12.5719 29.3738 14.2813 29.3582 16.0031 29.3582C17.7282 29.3582 19.4375 29.3738 21.1594 29.2769C23.1594 29.18 24.9344 28.7238 26.3969 27.2613C27.8625 25.7957 28.3157 24.0238 28.4125 22.0238C28.5125 20.3019 28.4938 18.5925 28.4938 16.8675ZM25.7438 24.2363C25.5157 24.805 25.2407 25.23 24.8 25.6675C24.3594 26.1082 23.9375 26.3832 23.3688 26.6113C21.725 27.2644 17.8219 27.1175 16 27.1175C14.1782 27.1175 10.2719 27.2644 8.62815 26.6144C8.0594 26.3863 7.6344 26.1113 7.1969 25.6707C6.75628 25.23 6.48128 24.8082 6.25315 24.2394C5.60315 22.5925 5.75003 18.6894 5.75003 16.8675C5.75003 15.0457 5.60315 11.1394 6.25315 9.49566C6.48128 8.92691 6.75628 8.50191 7.1969 8.06441C7.63753 7.62691 8.0594 7.34878 8.62815 7.12066C10.2719 6.47066 14.1782 6.61753 16 6.61753C17.8219 6.61753 21.7282 6.47066 23.3719 7.12066C23.9407 7.34878 24.3657 7.62378 24.8032 8.06441C25.2438 8.50503 25.5188 8.92691 25.7469 9.49566C26.3969 11.1394 26.25 15.0457 26.25 16.8675C26.25 18.6894 26.3969 22.5925 25.7438 24.2363Z" fill="#C13584"/>
</svg>
