<svg width="32" height="33" viewBox="0 0 32 33" fill="none" xmlns="http://www.w3.org/2000/svg">
<path d="M31.524 7.45012C30.4107 7.94345 29.2147 8.27679 27.9573 8.42745C29.2547 7.65118 30.2253 6.42941 30.688 4.99012C29.4691 5.71411 28.1351 6.22371 26.744 6.49679C25.8085 5.49794 24.5694 4.83589 23.2191 4.61342C21.8688 4.39095 20.4828 4.62051 19.2763 5.26646C18.0698 5.9124 17.1104 6.9386 16.5469 8.18572C15.9834 9.43285 15.8474 10.8311 16.16 12.1635C13.6902 12.0394 11.2742 11.3975 9.06856 10.2793C6.86296 9.16113 4.91712 7.59167 3.35733 5.67279C2.824 6.59279 2.51733 7.65945 2.51733 8.79545C2.51673 9.81811 2.76857 10.8251 3.2505 11.7271C3.73243 12.6291 4.42954 13.3982 5.28 13.9661C4.2937 13.9347 3.32916 13.6682 2.46666 13.1888V13.2688C2.46656 14.7031 2.96271 16.0933 3.87091 17.2034C4.77911 18.3136 6.04342 19.0754 7.44933 19.3595C6.53437 19.6071 5.57511 19.6435 4.644 19.4661C5.04066 20.7003 5.81332 21.7795 6.85382 22.5527C7.89431 23.3259 9.15055 23.7544 10.4467 23.7781C8.24644 25.5053 5.52918 26.4422 2.732 26.4381C2.2365 26.4383 1.74143 26.4093 1.24933 26.3515C4.08863 28.177 7.39378 29.1459 10.7693 29.1421C22.196 29.1421 28.4427 19.6781 28.4427 11.4701C28.4427 11.2035 28.436 10.9341 28.424 10.6675C29.6391 9.78875 30.6879 8.70065 31.5213 7.45412L31.524 7.45012Z" fill="#1DA1F2"/>
</svg>
