<svg width="32" height="33" viewBox="0 0 32 33" fill="none" xmlns="http://www.w3.org/2000/svg">
<path d="M31.3334 9.54337C31.1522 8.89701 30.7992 8.31183 30.312 7.85004C29.8111 7.37404 29.1971 7.03355 28.528 6.8607C26.024 6.2007 15.992 6.2007 15.992 6.2007C11.8098 6.15312 7.6286 6.3624 3.47203 6.82737C2.80295 7.01299 2.19011 7.36109 1.68803 7.8407C1.1947 8.31537 0.837363 8.9007 0.650696 9.54204C0.202287 11.9577 -0.0155812 14.4105 2.94539e-05 16.8674C-0.0159705 19.322 0.201363 21.774 0.650696 24.1927C0.833363 24.8314 1.18936 25.414 1.68403 25.8847C2.1787 26.3554 2.7947 26.6954 3.47203 26.8754C6.00936 27.534 15.992 27.534 15.992 27.534C20.1796 27.5817 24.3661 27.3724 28.528 26.9074C29.1971 26.7345 29.8111 26.394 30.312 25.918C30.799 25.4563 31.1516 24.8711 31.332 24.2247C31.7921 21.81 32.0159 19.3562 32 16.898C32.0346 14.4295 31.8112 11.9641 31.3334 9.54204V9.54337ZM12.8027 21.4327V12.3034L21.1494 16.8687L12.8027 21.4327Z" fill="#FF0000"/>
</svg>
